# xmcd CD database file
#
# Track frame offsets:
#	150
#	22490
#	34465
#	50007
#	62605
#	75662
#	93785
#	107437
#	117220
#	129385
#	143822
#	155265
#
# Disc length: 2301 seconds
#
# Revision: 10
# Processed by: cddbd v1.5.2PL0 Copyright (c) Steve Scherf et al.
# Submitted via: CDex 1.99.1
#
DISCID=9c08fb0c
DTITLE=J.J. Cale - Guitar Man
DYEAR=1996
DGENRE=Rock
TTITLE0=Death In The Wilderness
TTITLE1=It's Hard To Tell
TTITLE2=Days Go By
TTITLE3=Low Down
TTITLE4=This Town
TTITLE5=Guitar Man
TTITLE6=If I Had A Rocket
TTITLE7=Perfect Woman
TTITLE8=Old Blue
TTITLE9=Doctor Told Me
TTITLE10=Miss Ol'St. Louie
TTITLE11=Nobody Knows
EXTD=All songs by J.J. Cale except Old Blue, traditional arranged by J.J. CaleJames Cruce - drums on "Death In The Wilderness"Christine Lakeland-guitar and background vocals on "Death In The Wilderness"Produced byJ.J. Cale YEAR: 1996
EXTT0=
EXTT1=
EXTT2=
EXTT3=
EXTT4=
EXTT5=
EXTT6=
EXTT7=
EXTT8=
EXTT9=
EXTT10=
EXTT11=
PLAYORDER=
